<svg width="195" height="33" viewBox="0 0 195 33" fill="none" xmlns="http://www.w3.org/2000/svg">
<path d="M62.1241 16.7678C62.056 16.0803 61.7633 15.5462 61.2463 15.1655C60.7292 14.7848 60.0275 14.5945 59.1412 14.5945C58.5389 14.5945 58.0304 14.6797 57.6156 14.8502C57.2008 15.0149 56.8827 15.245 56.6611 15.5405C56.4452 15.8359 56.3372 16.1712 56.3372 16.5462C56.3258 16.8587 56.3912 17.1314 56.5332 17.3644C56.6809 17.5973 56.8827 17.799 57.1383 17.9695C57.394 18.1342 57.6895 18.2791 58.0247 18.4041C58.3599 18.5234 58.7179 18.6257 59.0986 18.7109L60.6667 19.0859C61.4281 19.2564 62.127 19.4837 62.7633 19.7678C63.3997 20.0519 63.9508 20.4013 64.4167 20.8161C64.8827 21.2308 65.2435 21.7195 65.4991 22.282C65.7605 22.8445 65.894 23.4894 65.8997 24.2166C65.894 25.2848 65.6213 26.2109 65.0815 26.995C64.5474 27.7734 63.7747 28.3786 62.7633 28.8104C61.7577 29.2365 60.5446 29.4496 59.1241 29.4496C57.715 29.4496 56.4878 29.2337 55.4423 28.8019C54.4025 28.37 53.59 27.7308 53.0048 26.8842C52.4253 26.032 52.1213 24.978 52.0929 23.7223H55.6639C55.7037 24.3075 55.8713 24.7962 56.1667 25.1882C56.4679 25.5746 56.8684 25.8672 57.3684 26.0661C57.8741 26.2592 58.4452 26.3558 59.0815 26.3558C59.7065 26.3558 60.2491 26.2649 60.7094 26.0831C61.1753 25.9013 61.5361 25.6484 61.7917 25.3246C62.0474 25.0007 62.1753 24.6286 62.1753 24.2081C62.1753 23.8161 62.0588 23.4865 61.8258 23.2195C61.5986 22.9524 61.2633 22.7252 60.8202 22.5377C60.3827 22.3502 59.8457 22.1797 59.2094 22.0263L57.3088 21.549C55.8372 21.1911 54.6753 20.6314 53.823 19.87C52.9707 19.1087 52.5474 18.0831 52.5531 16.7933C52.5474 15.7365 52.8287 14.8132 53.3969 14.0234C53.9707 13.2337 54.7577 12.6172 55.7577 12.174C56.7577 11.7308 57.894 11.5092 59.1667 11.5092C60.4622 11.5092 61.5929 11.7308 62.5588 12.174C63.5304 12.6172 64.2861 13.2337 64.8258 14.0234C65.3656 14.8132 65.644 15.728 65.6611 16.7678H62.1241ZM74.2797 29.4581C72.9331 29.4581 71.774 29.1854 70.8024 28.6399C69.8365 28.0888 69.0922 27.3104 68.5694 26.3047C68.0467 25.2933 67.7854 24.0973 67.7854 22.7166C67.7854 21.37 68.0467 20.1882 68.5694 19.1712C69.0922 18.1541 69.828 17.3615 70.7768 16.7933C71.7314 16.2252 72.8507 15.9411 74.1348 15.9411C74.9984 15.9411 75.8024 16.0803 76.5467 16.3587C77.2967 16.6314 77.9501 17.0433 78.5069 17.5945C79.0694 18.1456 79.5069 18.8388 79.8194 19.674C80.1319 20.5036 80.2882 21.4752 80.2882 22.5888V23.5859H69.2342V21.3359H76.8706C76.8706 20.8132 76.7569 20.3502 76.5297 19.9467C76.3024 19.5433 75.9871 19.228 75.5836 19.0007C75.1859 18.7678 74.7229 18.6513 74.1944 18.6513C73.6433 18.6513 73.1547 18.7791 72.7285 19.0348C72.3081 19.2848 71.9785 19.6229 71.7399 20.049C71.5013 20.4695 71.3791 20.9382 71.3734 21.4553V23.5945C71.3734 24.2422 71.4927 24.8019 71.7314 25.2734C71.9757 25.745 72.3194 26.1087 72.7626 26.3644C73.2058 26.62 73.7314 26.7479 74.3393 26.7479C74.7427 26.7479 75.1121 26.6911 75.4473 26.5774C75.7825 26.4638 76.0694 26.2933 76.3081 26.0661C76.5467 25.8388 76.7285 25.5604 76.8535 25.2308L80.2115 25.4524C80.041 26.2592 79.6916 26.9638 79.1632 27.5661C78.6405 28.1627 77.9643 28.6286 77.1348 28.9638C76.3109 29.2933 75.3592 29.4581 74.2797 29.4581ZM82.6575 29.2024V16.1115H86.1177V18.4212H86.2711C86.5439 17.6541 86.9984 17.049 87.6348 16.6058C88.2711 16.1627 89.0325 15.9411 89.9189 15.9411C90.8166 15.9411 91.5808 16.1655 92.2115 16.6144C92.8422 17.0575 93.2626 17.6598 93.4729 18.4212H93.6092C93.8763 17.6712 94.3592 17.0717 95.0581 16.6229C95.7626 16.1683 96.595 15.9411 97.5552 15.9411C98.7768 15.9411 99.7683 16.3303 100.53 17.1087C101.297 17.8814 101.68 18.978 101.68 20.3984V29.2024H98.0581V21.1144C98.0581 20.3871 97.8649 19.8416 97.4785 19.478C97.0922 19.1144 96.6092 18.9325 96.0297 18.9325C95.3706 18.9325 94.8564 19.1428 94.4871 19.5632C94.1177 19.978 93.9331 20.5263 93.9331 21.2081V29.2024H90.4132V21.0377C90.4132 20.3956 90.2285 19.8842 89.8592 19.5036C89.4956 19.1229 89.0155 18.9325 88.4189 18.9325C88.0155 18.9325 87.6518 19.0348 87.328 19.2394C87.0098 19.4382 86.7569 19.7195 86.5694 20.0831C86.3819 20.4411 86.2882 20.8615 86.2882 21.3445V29.2024H82.6575ZM108.281 29.4496C107.446 29.4496 106.702 29.3047 106.048 29.0149C105.395 28.7195 104.878 28.2848 104.497 27.7109C104.122 27.1314 103.935 26.4098 103.935 25.5462C103.935 24.8189 104.068 24.2081 104.335 23.7138C104.602 23.2195 104.966 22.8217 105.426 22.5206C105.886 22.2195 106.409 21.9922 106.994 21.8388C107.585 21.6854 108.204 21.5774 108.852 21.5149C109.613 21.4354 110.227 21.3615 110.693 21.2933C111.159 21.2195 111.497 21.1115 111.707 20.9695C111.917 20.8274 112.023 20.6172 112.023 20.3388V20.2877C112.023 19.7479 111.852 19.3303 111.511 19.0348C111.176 18.7394 110.699 18.5916 110.079 18.5916C109.426 18.5916 108.906 18.7365 108.52 19.0263C108.133 19.3104 107.878 19.6683 107.753 20.1002L104.395 19.8274C104.565 19.032 104.9 18.3445 105.4 17.7649C105.9 17.1797 106.545 16.7308 107.335 16.4183C108.131 16.1002 109.051 15.9411 110.096 15.9411C110.824 15.9411 111.52 16.0263 112.185 16.1967C112.855 16.3672 113.449 16.6314 113.966 16.9894C114.488 17.3473 114.9 17.8075 115.202 18.37C115.503 18.9269 115.653 19.5945 115.653 20.3729V29.2024H112.21V27.3871H112.108C111.898 27.7962 111.616 28.157 111.264 28.4695C110.912 28.7763 110.488 29.0178 109.994 29.1939C109.5 29.3644 108.929 29.4496 108.281 29.4496ZM109.321 26.9439C109.855 26.9439 110.327 26.8388 110.736 26.6286C111.145 26.4127 111.466 26.1229 111.699 25.7592C111.932 25.3956 112.048 24.9837 112.048 24.5234V23.1342C111.935 23.2081 111.778 23.2763 111.579 23.3388C111.386 23.3956 111.167 23.4496 110.923 23.5007C110.679 23.5462 110.435 23.5888 110.19 23.6286C109.946 23.6627 109.724 23.6939 109.525 23.7223C109.099 23.7848 108.727 23.8842 108.409 24.0206C108.091 24.157 107.844 24.3416 107.667 24.5746C107.491 24.8019 107.403 25.0859 107.403 25.4269C107.403 25.9212 107.582 26.299 107.94 26.5604C108.304 26.8161 108.764 26.9439 109.321 26.9439ZM122.101 21.6342V29.2024H118.47V16.1115H121.93V18.4212H122.084C122.373 17.6598 122.859 17.0575 123.541 16.6144C124.223 16.1655 125.05 15.9411 126.021 15.9411C126.93 15.9411 127.723 16.1399 128.399 16.5377C129.075 16.9354 129.601 17.5036 129.976 18.2422C130.351 18.9751 130.538 19.8501 130.538 20.8672V29.2024H126.908V21.5149C126.913 20.7138 126.709 20.0888 126.294 19.6399C125.879 19.1854 125.308 18.9581 124.581 18.9581C124.092 18.9581 123.66 19.0632 123.285 19.2734C122.916 19.4837 122.626 19.7905 122.416 20.1939C122.211 20.5916 122.106 21.0717 122.101 21.6342ZM137.133 29.4496C136.297 29.4496 135.553 29.3047 134.9 29.0149C134.246 28.7195 133.729 28.2848 133.349 27.7109C132.974 27.1314 132.786 26.4098 132.786 25.5462C132.786 24.8189 132.92 24.2081 133.187 23.7138C133.454 23.2195 133.817 22.8217 134.278 22.5206C134.738 22.2195 135.26 21.9922 135.846 21.8388C136.437 21.6854 137.056 21.5774 137.704 21.5149C138.465 21.4354 139.079 21.3615 139.545 21.2933C140.01 21.2195 140.349 21.1115 140.559 20.9695C140.769 20.8274 140.874 20.6172 140.874 20.3388V20.2877C140.874 19.7479 140.704 19.3303 140.363 19.0348C140.028 18.7394 139.55 18.5916 138.931 18.5916C138.278 18.5916 137.758 18.7365 137.371 19.0263C136.985 19.3104 136.729 19.6683 136.604 20.1002L133.246 19.8274C133.417 19.032 133.752 18.3445 134.252 17.7649C134.752 17.1797 135.397 16.7308 136.187 16.4183C136.982 16.1002 137.903 15.9411 138.948 15.9411C139.675 15.9411 140.371 16.0263 141.036 16.1967C141.707 16.3672 142.3 16.6314 142.817 16.9894C143.34 17.3473 143.752 17.8075 144.053 18.37C144.354 18.9269 144.505 19.5945 144.505 20.3729V29.2024H141.062V27.3871H140.959C140.749 27.7962 140.468 28.157 140.116 28.4695C139.763 28.7763 139.34 29.0178 138.846 29.1939C138.351 29.3644 137.78 29.4496 137.133 29.4496ZM138.172 26.9439C138.707 26.9439 139.178 26.8388 139.587 26.6286C139.996 26.4127 140.317 26.1229 140.55 25.7592C140.783 25.3956 140.9 24.9837 140.9 24.5234V23.1342C140.786 23.2081 140.63 23.2763 140.431 23.3388C140.238 23.3956 140.019 23.4496 139.775 23.5007C139.53 23.5462 139.286 23.5888 139.042 23.6286C138.797 23.6627 138.576 23.6939 138.377 23.7223C137.951 23.7848 137.579 23.8842 137.26 24.0206C136.942 24.157 136.695 24.3416 136.519 24.5746C136.343 24.8019 136.255 25.0859 136.255 25.4269C136.255 25.9212 136.434 26.299 136.792 26.5604C137.155 26.8161 137.616 26.9439 138.172 26.9439ZM150.952 11.7479V29.2024H147.322V11.7479H150.952Z" fill="#686868"/>
<rect width="7.86743" height="32.5628" fill="#33B235"/>
<rect x="15.7349" width="7.86743" height="32.5628" fill="#33B235"/>
<rect x="15.7349" width="23.6023" height="6.20243" fill="#33B235"/>
<rect x="15.7349" y="12.4048" width="23.6023" height="6.20243" fill="#33B235"/>
</svg>
