
<svg width="112" height="22" viewBox="0 0 112 22" fill="none" xmlns="http://www.w3.org/2000/svg">
<path d="M44.1637 10.8555H42.1417C42.1048 10.5939 42.0294 10.3615 41.9155 10.1584C41.8016 9.95218 41.6554 9.77675 41.4769 9.6321C41.2984 9.48745 41.0922 9.37666 40.8583 9.29972C40.6275 9.22277 40.3767 9.1843 40.1058 9.1843C39.6165 9.1843 39.1902 9.30587 38.8271 9.54901C38.4639 9.78906 38.1823 10.1399 37.9822 10.6016C37.7822 11.0601 37.6822 11.6172 37.6822 12.2727C37.6822 12.9467 37.7822 13.513 37.9822 13.9716C38.1854 14.4302 38.4685 14.7764 38.8317 15.0103C39.1948 15.2442 39.6149 15.3612 40.092 15.3612C40.3597 15.3612 40.6075 15.3258 40.8352 15.255C41.0661 15.1842 41.2707 15.0811 41.4492 14.9457C41.6277 14.8072 41.7755 14.6394 41.8924 14.4425C42.0124 14.2455 42.0955 14.0208 42.1417 13.7685L44.1637 13.7777C44.1114 14.2116 43.9806 14.6302 43.7713 15.0334C43.5651 15.4335 43.2866 15.792 42.9357 16.109C42.5879 16.4229 42.1725 16.6722 41.6893 16.8569C41.2092 17.0385 40.666 17.1293 40.0597 17.1293C39.2164 17.1293 38.4624 16.9384 37.7976 16.5568C37.1359 16.1752 36.6127 15.6228 36.228 14.8995C35.8464 14.1763 35.6555 13.3007 35.6555 12.2727C35.6555 11.2417 35.8494 10.3646 36.2372 9.64134C36.625 8.91809 37.1513 8.36719 37.8161 7.98864C38.4808 7.60701 39.2287 7.41619 40.0597 7.41619C40.6075 7.41619 41.1153 7.49313 41.5831 7.64702C42.054 7.8009 42.471 8.02557 42.8342 8.32102C43.1973 8.6134 43.4928 8.97195 43.7205 9.39666C43.9513 9.82138 44.0991 10.3076 44.1637 10.8555ZM47.5822 17.1339C47.1298 17.1339 46.7266 17.0554 46.3727 16.8984C46.0188 16.7384 45.7387 16.503 45.5325 16.1921C45.3294 15.8782 45.2278 15.4873 45.2278 15.0195C45.2278 14.6256 45.3001 14.2947 45.4448 14.027C45.5894 13.7592 45.7864 13.5438 46.0357 13.3807C46.285 13.2176 46.5681 13.0945 46.8851 13.0114C47.2052 12.9283 47.5407 12.8698 47.8915 12.8359C48.3039 12.7929 48.6363 12.7528 48.8887 12.7159C49.141 12.6759 49.3242 12.6174 49.438 12.5405C49.5519 12.4635 49.6088 12.3497 49.6088 12.1989V12.1712C49.6088 11.8788 49.5165 11.6526 49.3319 11.4925C49.1503 11.3325 48.8917 11.2525 48.5563 11.2525C48.2024 11.2525 47.9208 11.331 47.7115 11.4879C47.5022 11.6418 47.3637 11.8357 47.296 12.0696L45.4771 11.9219C45.5694 11.491 45.751 11.1186 46.0218 10.8047C46.2927 10.4877 46.642 10.2446 47.0698 10.0753C47.5007 9.90294 47.9992 9.81676 48.5655 9.81676C48.9595 9.81676 49.3365 9.86293 49.6966 9.95526C50.0597 10.0476 50.3813 10.1907 50.6614 10.3846C50.9445 10.5785 51.1677 10.8278 51.3308 11.1325C51.4939 11.4341 51.5755 11.7957 51.5755 12.2173V17H49.7104V16.0167H49.655C49.5411 16.2383 49.3888 16.4337 49.198 16.603C49.0072 16.7692 48.7779 16.9 48.5101 16.9954C48.2424 17.0877 47.9331 17.1339 47.5822 17.1339ZM48.1454 15.7766C48.4347 15.7766 48.6902 15.7197 48.9118 15.6058C49.1333 15.4889 49.3072 15.3319 49.4334 15.1349C49.5596 14.938 49.6227 14.7148 49.6227 14.4656V13.7131C49.5611 13.7531 49.4765 13.79 49.3688 13.8239C49.2641 13.8546 49.1457 13.8839 49.0133 13.9116C48.881 13.9362 48.7486 13.9593 48.6163 13.9808C48.484 13.9993 48.3639 14.0162 48.2562 14.0316C48.0254 14.0655 47.8238 14.1193 47.6515 14.1932C47.4791 14.267 47.3452 14.3671 47.2498 14.4933C47.1544 14.6164 47.1067 14.7702 47.1067 14.9549C47.1067 15.2227 47.2037 15.4273 47.3975 15.5689C47.5945 15.7074 47.8438 15.7766 48.1454 15.7766ZM55.0678 7.54545V17H53.1012V7.54545H55.0678ZM59.8747 17.1385C59.1453 17.1385 58.5175 16.9908 57.9912 16.6953C57.468 16.3968 57.0648 15.9751 56.7817 15.4304C56.4985 14.8826 56.357 14.2347 56.357 13.4869C56.357 12.7575 56.4985 12.1173 56.7817 11.5664C57.0648 11.0155 57.4634 10.5862 57.9774 10.2784C58.4944 9.97064 59.1007 9.81676 59.7963 9.81676C60.2641 9.81676 60.6995 9.89216 61.1027 10.043C61.509 10.1907 61.8629 10.4138 62.1645 10.7124C62.4692 11.0109 62.7062 11.3864 62.8754 11.8388C63.0447 12.2881 63.1294 12.8144 63.1294 13.4176V13.9577H57.1418V12.739H61.2781C61.2781 12.4558 61.2166 12.205 61.0935 11.9865C60.9704 11.768 60.7996 11.5972 60.5811 11.4741C60.3656 11.3479 60.1148 11.2848 59.8286 11.2848C59.53 11.2848 59.2654 11.354 59.0345 11.4925C58.8068 11.628 58.6283 11.8111 58.499 12.0419C58.3698 12.2696 58.3036 12.5236 58.3005 12.8036V13.9624C58.3005 14.3132 58.3651 14.6164 58.4944 14.8718C58.6267 15.1272 58.8129 15.3242 59.053 15.4627C59.2931 15.6012 59.5777 15.6705 59.907 15.6705C60.1256 15.6705 60.3256 15.6397 60.5072 15.5781C60.6888 15.5166 60.8442 15.4242 60.9735 15.3011C61.1027 15.178 61.2012 15.0272 61.2689 14.8487L63.0878 14.9688C62.9955 15.4058 62.8062 15.7874 62.52 16.1136C62.2368 16.4368 61.8706 16.6892 61.4213 16.8707C60.975 17.0492 60.4595 17.1385 59.8747 17.1385ZM66.3794 12.9006V17H64.4127V9.90909H66.287V11.1602H66.3701C66.5271 10.7478 66.7902 10.4215 67.1595 10.1815C67.5289 9.93833 67.9767 9.81676 68.5029 9.81676C68.9954 9.81676 69.4247 9.92448 69.7909 10.1399C70.1572 10.3554 70.4419 10.6631 70.645 11.0632C70.8481 11.4602 70.9497 11.9342 70.9497 12.4851V17H68.983V12.8359C68.9861 12.402 68.8753 12.0634 68.6507 11.8203C68.426 11.5741 68.1167 11.451 67.7227 11.451C67.4581 11.451 67.2242 11.5079 67.021 11.6218C66.821 11.7357 66.664 11.9019 66.5502 12.1204C66.4394 12.3358 66.3824 12.5959 66.3794 12.9006ZM75.1126 17.1154C74.574 17.1154 74.0862 16.9769 73.6491 16.6999C73.2152 16.4199 72.8705 16.009 72.6151 15.4673C72.3627 14.9226 72.2365 14.2547 72.2365 13.4638C72.2365 12.6513 72.3673 11.9757 72.6289 11.4371C72.8905 10.8955 73.2383 10.4908 73.6722 10.223C74.1093 9.95218 74.5878 9.81676 75.108 9.81676C75.505 9.81676 75.8358 9.88447 76.1005 10.0199C76.3683 10.1522 76.5837 10.3184 76.7468 10.5185C76.913 10.7154 77.0392 10.9093 77.1254 11.1001H77.1854V7.54545H79.1474V17H77.2085V15.8643H77.1254C77.033 16.0613 76.9022 16.2567 76.733 16.4506C76.5668 16.6415 76.3498 16.8 76.082 16.9261C75.8174 17.0523 75.4942 17.1154 75.1126 17.1154ZM75.7358 15.5504C76.0528 15.5504 76.3205 15.4643 76.5391 15.2919C76.7607 15.1165 76.9299 14.8718 77.0469 14.5579C77.1669 14.244 77.2269 13.8762 77.2269 13.4545C77.2269 13.0329 77.1684 12.6667 77.0515 12.3558C76.9345 12.045 76.7653 11.8049 76.5437 11.6357C76.3221 11.4664 76.0528 11.3817 75.7358 11.3817C75.4126 11.3817 75.1403 11.4695 74.9187 11.6449C74.6971 11.8203 74.5294 12.0634 74.4155 12.3743C74.3016 12.6851 74.2447 13.0452 74.2447 13.4545C74.2447 13.867 74.3016 14.2317 74.4155 14.5487C74.5324 14.8626 74.7002 15.1088 74.9187 15.2873C75.1403 15.4627 75.4126 15.5504 75.7358 15.5504ZM82.7863 17.1339C82.3339 17.1339 81.9307 17.0554 81.5768 16.8984C81.2229 16.7384 80.9428 16.503 80.7366 16.1921C80.5335 15.8782 80.4319 15.4873 80.4319 15.0195C80.4319 14.6256 80.5042 14.2947 80.6489 14.027C80.7935 13.7592 80.9905 13.5438 81.2398 13.3807C81.4891 13.2176 81.7722 13.0945 82.0892 13.0114C82.4093 12.9283 82.7448 12.8698 83.0956 12.8359C83.508 12.7929 83.8404 12.7528 84.0928 12.7159C84.3451 12.6759 84.5283 12.6174 84.6421 12.5405C84.756 12.4635 84.8129 12.3497 84.8129 12.1989V12.1712C84.8129 11.8788 84.7206 11.6526 84.536 11.4925C84.3544 11.3325 84.0959 11.2525 83.7604 11.2525C83.4065 11.2525 83.1249 11.331 82.9156 11.4879C82.7063 11.6418 82.5678 11.8357 82.5001 12.0696L80.6812 11.9219C80.7735 11.491 80.9551 11.1186 81.2259 10.8047C81.4968 10.4877 81.8461 10.2446 82.2739 10.0753C82.7048 9.90294 83.2033 9.81676 83.7696 9.81676C84.1636 9.81676 84.5406 9.86293 84.9007 9.95526C85.2638 10.0476 85.5854 10.1907 85.8655 10.3846C86.1486 10.5785 86.3718 10.8278 86.5349 11.1325C86.698 11.4341 86.7796 11.7957 86.7796 12.2173V17H84.9145V16.0167H84.8591C84.7452 16.2383 84.5929 16.4337 84.4021 16.603C84.2113 16.7692 83.982 16.9 83.7142 16.9954C83.4465 17.0877 83.1372 17.1339 82.7863 17.1339ZM83.3495 15.7766C83.6388 15.7766 83.8943 15.7197 84.1159 15.6058C84.3374 15.4889 84.5113 15.3319 84.6375 15.1349C84.7637 14.938 84.8268 14.7148 84.8268 14.4656V13.7131C84.7652 13.7531 84.6806 13.79 84.5729 13.8239C84.4682 13.8546 84.3498 13.8839 84.2174 13.9116C84.0851 13.9362 83.9527 13.9593 83.8204 13.9808C83.6881 13.9993 83.568 14.0162 83.4603 14.0316C83.2295 14.0655 83.0279 14.1193 82.8556 14.1932C82.6832 14.267 82.5493 14.3671 82.4539 14.4933C82.3585 14.6164 82.3108 14.7702 82.3108 14.9549C82.3108 15.2227 82.4078 15.4273 82.6017 15.5689C82.7986 15.7074 83.0479 15.7766 83.3495 15.7766ZM88.3053 17V9.90909H90.2119V11.1463H90.2858C90.415 10.7062 90.632 10.3738 90.9367 10.1491C91.2414 9.9214 91.5922 9.80753 91.9893 9.80753C92.0877 9.80753 92.1939 9.81368 92.3078 9.82599C92.4217 9.8383 92.5217 9.85523 92.6079 9.87678V11.6218C92.5155 11.5941 92.3878 11.5695 92.2247 11.5479C92.0616 11.5264 91.9123 11.5156 91.7769 11.5156C91.4876 11.5156 91.2291 11.5787 91.0013 11.7049C90.7767 11.828 90.5982 12.0004 90.4658 12.2219C90.3366 12.4435 90.2719 12.699 90.2719 12.9883V17H88.3053Z" fill="#31B335"/>
<rect x="0.946716" y="11.4048" width="20.888" height="10.5951" fill="#31B335"/>
<rect x="0.946716" y="5.04776" width="20.888" height="4.23806" fill="#31B335"/>
<rect x="3.26758" y="13.5239" width="16.2463" height="6.35708" fill="#66B46A"/>
<rect x="3.26758" y="7.16681" width="16.2463" height="2.11903" fill="#66B46A"/>
<rect x="17.1929" y="0.809723" width="2.32089" height="2.11903" fill="#66B46A"/>
<rect x="3.26758" y="0.809723" width="2.32089" height="2.11903" fill="#66B46A"/>
<rect x="17.1929" y="0.809723" width="2.32089" height="4.23806" fill="#31B335"/>
<rect x="3.26758" y="0.809723" width="2.32089" height="4.23806" fill="#31B335"/>
</svg>
