<svg width="95" height="16" viewBox="0 0 95 16" fill="none" xmlns="http://www.w3.org/2000/svg">
<path d="M14.851 11.2705L14.8904 12.7963C14.9008 13.201 14.6999 13.5925 14.3318 13.8847C13.9637 14.1768 13.4586 14.3458 12.9276 14.3543L3.3173 14.5085C2.7863 14.517 2.27289 14.3644 1.89003 14.0843C1.50717 13.8041 1.28621 13.4194 1.27577 13.0148L1.03944 3.85988C1.029 3.45521 1.22992 3.06373 1.59801 2.77156C1.9661 2.47939 2.4712 2.31047 3.0022 2.30195L12.6125 2.14776C13.1435 2.13924 13.6569 2.29183 14.0398 2.57195C14.4226 2.85207 14.6436 3.23678 14.654 3.64145L14.6934 5.16727M18.0544 11.2191L21.9799 8.10325L17.8969 5.11587M8.31528 8.32249L21.9799 8.10325" stroke="black" stroke-linecap="round" stroke-linejoin="round"/>
<path d="M32.9506 6.26456C32.9137 5.89216 32.7552 5.60286 32.4751 5.39666C32.1951 5.19046 31.815 5.08736 31.3349 5.08736C31.0086 5.08736 30.7332 5.13352 30.5085 5.22585C30.2839 5.3151 30.1115 5.43975 29.9915 5.59979C29.8745 5.75982 29.8161 5.94141 29.8161 6.14453C29.8099 6.3138 29.8453 6.46153 29.9222 6.58771C30.0022 6.7139 30.1115 6.82315 30.25 6.91548C30.3885 7.00473 30.5485 7.08321 30.7301 7.15092C30.9117 7.21555 31.1056 7.27095 31.3118 7.31712L32.1612 7.52024C32.5736 7.61257 32.9522 7.73568 33.2969 7.88956C33.6416 8.04344 33.9401 8.23272 34.1925 8.45739C34.4448 8.68205 34.6403 8.94673 34.7788 9.25142C34.9203 9.55611 34.9927 9.90542 34.9957 10.2994C34.9927 10.878 34.8449 11.3796 34.5526 11.8043C34.2633 12.226 33.8447 12.5537 33.2969 12.7876C32.7521 13.0185 32.0951 13.1339 31.3256 13.1339C30.5624 13.1339 29.8976 13.0169 29.3313 12.783C28.7681 12.5491 28.328 12.2029 28.011 11.7443C27.6971 11.2827 27.5324 10.7118 27.517 10.0316H29.4513C29.4729 10.3486 29.5637 10.6133 29.7237 10.8256C29.8868 11.0349 30.1038 11.1934 30.3746 11.3011C30.6486 11.4058 30.9579 11.4581 31.3026 11.4581C31.6411 11.4581 31.935 11.4089 32.1843 11.3104C32.4367 11.2119 32.6321 11.0749 32.7706 10.8995C32.9091 10.7241 32.9783 10.5225 32.9783 10.2947C32.9783 10.0824 32.9152 9.90388 32.7891 9.75923C32.666 9.61458 32.4844 9.49148 32.2443 9.38991C32.0073 9.28835 31.7165 9.19602 31.3718 9.11293L30.3423 8.8544C29.5452 8.66051 28.9158 8.35736 28.4542 7.94496C27.9925 7.53255 27.7633 6.97704 27.7663 6.27841C27.7633 5.70597 27.9156 5.20585 28.2234 4.77805C28.5342 4.35026 28.9605 4.01634 29.5021 3.77628C30.0438 3.53622 30.6593 3.41619 31.3487 3.41619C32.0504 3.41619 32.6629 3.53622 33.1861 3.77628C33.7124 4.01634 34.1217 4.35026 34.4141 4.77805C34.7064 5.20585 34.8572 5.70135 34.8665 6.26456H32.9506ZM38.27 8.90057V13H36.3034V3.54545H38.2146V7.16016H38.2977C38.4577 6.7416 38.7162 6.41383 39.0732 6.17685C39.4302 5.93679 39.878 5.81676 40.4166 5.81676C40.9091 5.81676 41.3384 5.92448 41.7046 6.13991C42.074 6.35227 42.3602 6.6585 42.5633 7.05859C42.7695 7.45561 42.8711 7.93111 42.868 8.48508V13H40.9014V8.83594C40.9044 8.39891 40.7936 8.05883 40.569 7.8157C40.3474 7.57256 40.0365 7.45099 39.6365 7.45099C39.3687 7.45099 39.1317 7.50793 38.9255 7.6218C38.7224 7.73568 38.5624 7.90187 38.4454 8.12038C38.3315 8.33582 38.2731 8.59588 38.27 8.90057ZM46.4377 13.1339C45.9853 13.1339 45.5821 13.0554 45.2282 12.8984C44.8742 12.7384 44.5942 12.503 44.388 12.1921C44.1848 11.8782 44.0833 11.4873 44.0833 11.0195C44.0833 10.6256 44.1556 10.2947 44.3002 10.027C44.4449 9.75923 44.6419 9.5438 44.8912 9.38068C45.1404 9.21757 45.4236 9.09446 45.7406 9.01136C46.0607 8.92827 46.3961 8.86979 46.747 8.83594C47.1594 8.79285 47.4918 8.75284 47.7441 8.71591C47.9965 8.6759 48.1796 8.61742 48.2935 8.54048C48.4074 8.46354 48.4643 8.34967 48.4643 8.19886V8.17116C48.4643 7.87879 48.372 7.65258 48.1873 7.49254C48.0057 7.3325 47.7472 7.25249 47.4118 7.25249C47.0578 7.25249 46.7762 7.33097 46.5669 7.48793C46.3577 7.64181 46.2192 7.8357 46.1515 8.0696L44.3326 7.92188C44.4249 7.491 44.6065 7.11861 44.8773 6.80469C45.1481 6.48769 45.4975 6.24455 45.9252 6.07528C46.3561 5.90294 46.8547 5.81676 47.421 5.81676C47.8149 5.81676 48.1919 5.86293 48.552 5.95526C48.9152 6.04759 49.2368 6.1907 49.5169 6.38459C49.8 6.57848 50.0231 6.82777 50.1863 7.13246C50.3494 7.43407 50.4309 7.79569 50.4309 8.21733V13H48.5659V12.0167H48.5105C48.3966 12.2383 48.2443 12.4337 48.0534 12.603C47.8626 12.7692 47.6333 12.9 47.3656 12.9954C47.0978 13.0877 46.7885 13.1339 46.4377 13.1339ZM47.0009 11.7766C47.2902 11.7766 47.5456 11.7197 47.7672 11.6058C47.9888 11.4889 48.1627 11.3319 48.2889 11.1349C48.4151 10.938 48.4782 10.7148 48.4782 10.4656V9.71307C48.4166 9.75308 48.332 9.79001 48.2243 9.82386C48.1196 9.85464 48.0011 9.88388 47.8688 9.91158C47.7364 9.9362 47.6041 9.95928 47.4718 9.98082C47.3394 9.99929 47.2194 10.0162 47.1117 10.0316C46.8809 10.0655 46.6793 10.1193 46.5069 10.1932C46.3346 10.267 46.2007 10.3671 46.1053 10.4933C46.0099 10.6164 45.9622 10.7702 45.9622 10.9549C45.9622 11.2227 46.0591 11.4273 46.253 11.5689C46.45 11.7074 46.6993 11.7766 47.0009 11.7766ZM51.9567 13V5.90909H53.8633V7.14631H53.9371C54.0664 6.7062 54.2834 6.37382 54.5881 6.14915C54.8928 5.9214 55.2436 5.80753 55.6406 5.80753C55.7391 5.80753 55.8453 5.81368 55.9592 5.82599C56.073 5.8383 56.1731 5.85523 56.2592 5.87678V7.6218C56.1669 7.5941 56.0392 7.56948 55.8761 7.54794C55.7129 7.5264 55.5637 7.51562 55.4283 7.51562C55.139 7.51562 54.8804 7.57872 54.6527 7.7049C54.428 7.82801 54.2495 8.00035 54.1172 8.22195C53.9879 8.44354 53.9233 8.69898 53.9233 8.98828V13H51.9567ZM60.1775 13.1385C59.4481 13.1385 58.8202 12.9908 58.2939 12.6953C57.7707 12.3968 57.3676 11.9751 57.0844 11.4304C56.8013 10.8826 56.6597 10.2347 56.6597 9.48686C56.6597 8.75746 56.8013 8.11731 57.0844 7.56641C57.3676 7.01551 57.7661 6.58617 58.2801 6.27841C58.7971 5.97064 59.4034 5.81676 60.099 5.81676C60.5668 5.81676 61.0023 5.89216 61.4055 6.04297C61.8117 6.1907 62.1656 6.41383 62.4672 6.71236C62.7719 7.01089 63.0089 7.38636 63.1782 7.83878C63.3474 8.28812 63.4321 8.81439 63.4321 9.41761V9.95774H57.4445V8.73899H61.5809C61.5809 8.45585 61.5193 8.20502 61.3962 7.98651C61.2731 7.76799 61.1023 7.59718 60.8838 7.47408C60.6684 7.34789 60.4175 7.2848 60.1313 7.2848C59.8328 7.2848 59.5681 7.35405 59.3373 7.49254C59.1095 7.62796 58.931 7.81108 58.8018 8.0419C58.6725 8.26965 58.6063 8.52356 58.6032 8.80362V9.96236C58.6032 10.3132 58.6679 10.6164 58.7971 10.8718C58.9295 11.1272 59.1157 11.3242 59.3557 11.4627C59.5958 11.6012 59.8805 11.6705 60.2098 11.6705C60.4283 11.6705 60.6283 11.6397 60.8099 11.5781C60.9915 11.5166 61.1469 11.4242 61.2762 11.3011C61.4055 11.178 61.5039 11.0272 61.5716 10.8487L63.3905 10.9688C63.2982 11.4058 63.1089 11.7874 62.8227 12.1136C62.5396 12.4368 62.1733 12.6892 61.724 12.8707C61.2777 13.0492 60.7622 13.1385 60.1775 13.1385Z" fill="#686666"/>
</svg>
